<!-- <svg xmlns="http://www.w3.org/2000/svg" viewBox="0 0 261.76 226.69"  xmlns:v="https://vecta.io/nano"><path d="M161.096.001l-30.225 52.351L100.647.001H-.005l130.877 226.688L261.749.001z" fill="#41b883"/><path d="M161.096.001l-30.225 52.351L100.647.001H52.346l78.526 136.01L209.398.001z" fill="#34495e"/></svg> -->
<svg xmlns="http://www.w3.org/2000/svg" x="0px" y="0px"
width="50" height="50"
viewBox="0 0 172 172"
style=" fill:#000000;"><g transform="translate(2.408,2.408) scale(0.972,0.972)"><g fill="none" fill-rule="nonzero" stroke="none" stroke-width="none" stroke-linecap="butt" stroke-linejoin="none" stroke-miterlimit="10" stroke-dasharray="" stroke-dashoffset="0" font-family="none" font-weight="none" font-size="none" text-anchor="none" style="mix-blend-mode: normal"><g fill="#000000" stroke="#000000" stroke-width="5" stroke-linejoin="round"><path d="M116.96,6.88c1.37063,0 2.39188,0.3225 3.7625,0.3225l-5.805,6.5575h-90.8375c-5.84531,0 -10.32,4.47469 -10.32,10.32v92.88c0,5.84531 4.47469,10.32 10.32,10.32h92.88c5.84531,0 10.32,-4.47469 10.32,-10.32v-75.68l6.88,-7.525v83.205c0,9.63469 -7.56531,17.2 -17.2,17.2h-92.88c-9.63469,0 -17.2,-7.56531 -17.2,-17.2v-92.88c0,-9.63469 7.56531,-17.2 17.2,-17.2zM129.86,22.8975l-61.92,68.8l-2.2575,2.58l-2.58,-2.2575l-30.96,-27.52l4.515,-5.16l28.4875,25.2625l59.555,-66.22zM147.92,37.84c9.63469,0 17.2,7.56531 17.2,17.2v92.88c0,9.63469 -7.56531,17.2 -17.2,17.2h-92.88c-9.63469,0 -17.2,-7.56531 -17.2,-17.2v-6.88h6.88v6.88c0,5.84531 4.47469,10.32 10.32,10.32h92.88c5.84531,0 10.32,-4.47469 10.32,-10.32v-92.88c0,-5.84531 -4.47469,-10.32 -10.32,-10.32h-6.88v-6.88z"></path></g><path d="M0,172v-172h172v172z" fill="none" stroke="none" stroke-width="1" stroke-linejoin="miter"></path><g fill="#000000" stroke="none" stroke-width="1" stroke-linejoin="miter"><path d="M24.08,6.88c-9.63469,0 -17.2,7.56531 -17.2,17.2v92.88c0,9.63469 7.56531,17.2 17.2,17.2h92.88c9.63469,0 17.2,-7.56531 17.2,-17.2v-83.205l-6.88,7.525v75.68c0,5.84531 -4.47469,10.32 -10.32,10.32h-92.88c-5.84531,0 -10.32,-4.47469 -10.32,-10.32v-92.88c0,-5.84531 4.47469,-10.32 10.32,-10.32h90.8375l5.805,-6.5575c-1.37062,0 -2.39187,-0.3225 -3.7625,-0.3225zM124.7,18.3825l-59.555,66.22l-28.4875,-25.2625l-4.515,5.16l30.96,27.52l2.58,2.2575l2.2575,-2.58l61.92,-68.8zM141.04,37.84v6.88h6.88c5.84531,0 10.32,4.47469 10.32,10.32v92.88c0,5.84531 -4.47469,10.32 -10.32,10.32h-92.88c-5.84531,0 -10.32,-4.47469 -10.32,-10.32v-6.88h-6.88v6.88c0,9.63469 7.56531,17.2 17.2,17.2h92.88c9.63469,0 17.2,-7.56531 17.2,-17.2v-92.88c0,-9.63469 -7.56531,-17.2 -17.2,-17.2z"></path></g><path d="" fill="none" stroke="none" stroke-width="1" stroke-linejoin="miter"></path></g></g></svg>